<svg width="23" height="23" viewBox="0 0 23 23" fill="none" xmlns="http://www.w3.org/2000/svg">
<g id="search">
<path id="Vector (Stroke)" fill-rule="evenodd" clip-rule="evenodd" d="M10.5417 3.83366C6.83684 3.83366 3.83341 6.83708 3.83341 10.542C3.83341 14.2469 6.83684 17.2503 10.5417 17.2503C14.2467 17.2503 17.2501 14.2469 17.2501 10.542C17.2501 6.83708 14.2467 3.83366 10.5417 3.83366ZM1.91675 10.542C1.91675 5.77854 5.77829 1.91699 10.5417 1.91699C15.3052 1.91699 19.1667 5.77854 19.1667 10.542C19.1667 15.3054 15.3052 19.167 10.5417 19.167C5.77829 19.167 1.91675 15.3054 1.91675 10.542Z" fill="white"/>
<path id="Vector (Stroke)_2" fill-rule="evenodd" clip-rule="evenodd" d="M15.2785 15.2787C15.6527 14.9045 16.2595 14.9045 16.6338 15.2787L20.8025 19.4475C21.1768 19.8217 21.1768 20.4285 20.8025 20.8028C20.4283 21.177 19.8215 21.177 19.4472 20.8028L15.2785 16.634C14.9042 16.2598 14.9042 15.653 15.2785 15.2787Z" fill="white"/>
</g>
</svg>
